[img]http://a.imageshack.us/img834/1636/icecubewestr.png[/img]

[img]http://a.imageshack.us/img411/6883/icecubewest3.png[/img]

[code]General
Complete name                    : Ice Cube - I Rep That West [KingPinVideos].mpg
Format                           : MPEG-PS
File size                        : 93.3 MiB
Duration                         : 5mn 12s
Overall bit rate                 : 2 502 Kbps
Writing library                  : encoded by TMPGEnc 4.0 XPress Version. 4.7.4.299

Video
ID                               : 224 (0xE0)
Format                           : MPEG Video
Format version                   : Version 1
Format settings, BVOP            : Yes
Format settings, Matrix          : Default
Duration                         : 5mn 12s
Bit rate mode                    : Variable
Bit rate                         : 2 275 Kbps
Nominal bit rate                 : 2 350 Kbps
Width                            : 384 pixels
Height                           : 208 pixels
Display aspect ratio             : 16:9
Frame rate                       : 29.970 fps
Resolution                       : 8 bits
Scan type                        : Progressive
Bits/(Pixel*Frame)               : 0.950
Stream size                      : 84.9 MiB (91%)
Writing library                  : TMPGEnc XPress 4.7.4.299

Audio
ID                               : 192 (0xC0)
Format                           : MPEG Audio
Format version                   : Version 1
Format profile                   : Layer 2
Duration                         : 5mn 12s
Bit rate mode                    : Constant
Bit rate                         : 128 Kbps
Channel(s)                       : 2 channels
Sampling rate                    : 48.0 KHz
Stream size                      : 4.77 MiB (5%)

[/code]